# xmcd CD database file
#
# Track frame offsets:
#	150
#	16459
#	33827
#	45568
#	64576
#	79966
#	96505
#	118958
#	143770
#	167012
#	184522
#	199239
#
# Disc length: 2665 seconds
#
# Revision: 0
# Processed by: cddbd v1.4b41PL3 Copyright (c) Steve Scherf et al.
# Submitted via: Feurio! 1.61 - http://www.feurio.com
#
DISCID=a20a670c
DTITLE=Silverwood - Drive
DYEAR=1900
DGENRE=
TTITLE0=Let The Show Get Started
TTITLE1=Drive
TTITLE2=Horses Run Free
TTITLE3=Me And Jacky
TTITLE4=Something To Look Forward To
TTITLE5=When I Look At You
TTITLE6=Take Me In Your Arms
TTITLE7=Lawman
TTITLE8=Lullaby
TTITLE9=Already In Love
TTITLE10=If You Don't Like Country
TTITLE11=Chime
EXTD=
EXTT0=
EXTT1=
EXTT2=
EXTT3=
EXTT4=
EXTT5=
EXTT6=
EXTT7=
EXTT8=
EXTT9=
EXTT10=
EXTT11=
PLAYORDER=
